<svg id="图层_1" data-name="图层 1" xmlns="http://www.w3.org/2000/svg" xmlns:xlink="http://www.w3.org/1999/xlink" viewBox="0 0 818.94 826.34"><defs><style>.cls-1{fill:none;}.cls-2{clip-path:url(#clip-path);}.cls-3{fill:#8f9bb2;}</style><clipPath id="clip-path" transform="translate(-105.35 -99.37)"><rect class="cls-1" x="105.48" y="98.68" width="819.12" height="828.04"/></clipPath></defs><title>home</title><g class="cls-2"><path class="cls-3" d="M617.24,925.71a51.4,51.4,0,0,1-51.15-51.88v-155H463.69v155a51.47,51.47,0,0,1-51.15,51.88H320.35A111.81,111.81,0,0,1,207.72,815V571.49a51.21,51.21,0,0,1,102.41,0V815c0,3.48,4.21,7.32,10.38,7.32h40.93V719a97.37,97.37,0,0,1,102.4-103.34H566.25A97.37,97.37,0,0,1,668.6,719V822.32h40.93c6.07,0,10.38-3.89,10.38-7.32V571.49a51.21,51.21,0,0,1,102.41,0V815A111.81,111.81,0,0,1,709.69,925.71ZM840.32,493,514.84,218.05,189.36,493a50.78,50.78,0,0,1-72.11-6.43,51.88,51.88,0,0,1,6.43-72.63L482,111.44a50.69,50.69,0,0,1,65.68,0L906,413.94a51.88,51.88,0,0,1,6.38,72.63A50.74,50.74,0,0,1,840.26,493Zm0,0" transform="translate(-105.35 -99.37)"/></g></svg>